<svg xmlns="http://www.w3.org/2000/svg" xmlns:xlink="http://www.w3.org/1999/xlink" width="500" zoomAndPan="magnify" viewBox="0 0 375 374.999991" height="500" preserveAspectRatio="xMidYMid meet" version="1.0"><defs><g/><clipPath id="5be449d8b7"><path d="M 85 57 L 305 57 L 305 251 L 85 251 Z M 85 57 " clip-rule="nonzero"/></clipPath><clipPath id="312a968cf6"><path d="M 62.828125 61.390625 L 290.332031 37.523438 L 311.929688 243.390625 L 84.425781 267.261719 Z M 62.828125 61.390625 " clip-rule="nonzero"/></clipPath><clipPath id="b350487f24"><path d="M 62.828125 61.390625 L 290.332031 37.523438 L 311.929688 243.390625 L 84.425781 267.261719 Z M 62.828125 61.390625 " clip-rule="nonzero"/></clipPath><clipPath id="2409d65945"><path d="M 62.828125 61.390625 L 290.332031 37.523438 L 311.929688 243.390625 L 84.425781 267.261719 Z M 62.828125 61.390625 " clip-rule="nonzero"/></clipPath></defs><g clip-path="url(#5be449d8b7)"><g clip-path="url(#312a968cf6)"><g clip-path="url(#b350487f24)"><g clip-path="url(#2409d65945)"><path fill="#ffffff" d="M 286.738281 131.90625 C 274.628906 113.15625 258.140625 101.128906 240.3125 98.042969 C 205.3125 91.988281 185.238281 78.449219 170.578125 68.5625 C 155.863281 58.640625 146.984375 52.648438 134.9375 63.464844 C 118.070312 78.609375 119.859375 96.609375 121.757812 115.667969 C 123.664062 134.796875 125.632812 154.574219 109.742188 174.175781 C 97.464844 189.324219 89.707031 203.265625 86.683594 215.605469 C 84.011719 226.507812 85.246094 235.648438 90.257812 242.035156 C 98.566406 252.628906 115.839844 253.871094 134.265625 245.207031 C 154.109375 235.871094 168.003906 239.253906 185.589844 243.539062 C 201.203125 247.339844 220.160156 251.960938 249.027344 248.933594 C 253.03125 248.511719 257.226562 247.945312 261.625 247.207031 C 275.726562 244.847656 286.640625 238.117188 294.054688 227.203125 C 300.648438 217.503906 304.152344 204.726562 304.195312 190.253906 C 304.25 170.445312 297.886719 149.179688 286.738281 131.90625 Z M 303.308594 190.25 C 303.222656 221 287.582031 241.96875 261.476562 246.335938 C 225.523438 252.351562 203.496094 246.992188 185.800781 242.679688 C 174.390625 239.902344 164.523438 237.496094 153.585938 238.644531 C 147.5 239.28125 141.082031 241.019531 133.886719 244.40625 C 115.851562 252.890625 99 251.746094 90.953125 241.488281 C 80.289062 227.890625 87.570312 202.9375 110.429688 174.734375 C 126.546875 154.851562 124.5625 134.886719 122.640625 115.582031 C 120.765625 96.753906 118.996094 78.964844 135.527344 64.125 C 147.058594 53.769531 155.238281 59.285156 170.082031 69.296875 C 184.808594 79.226562 204.976562 92.828125 240.160156 98.917969 C 257.742188 101.957031 274.019531 113.84375 285.992188 132.386719 C 297.054688 149.519531 303.367188 170.609375 303.308594 190.25 Z M 237.582031 101.03125 C 204.464844 95.300781 185.464844 82.488281 171.59375 73.132812 C 157.660156 63.734375 149.25 58.0625 137.832031 68.3125 C 121.859375 82.652344 123.554688 99.695312 125.351562 117.738281 C 127.15625 135.835938 129.015625 154.550781 113.988281 173.09375 C 92.082031 200.121094 85.1875 224.140625 95.546875 237.34375 C 103.417969 247.378906 119.773438 248.558594 137.222656 240.351562 C 155.996094 231.523438 169.140625 234.722656 185.78125 238.777344 C 200.558594 242.375 218.503906 246.75 245.828125 243.882812 C 249.617188 243.484375 253.589844 242.949219 257.75 242.25 C 271.105469 240.015625 281.4375 233.640625 288.460938 223.304688 C 294.703125 214.125 298.019531 202.027344 298.058594 188.324219 C 298.113281 169.570312 292.089844 149.441406 281.535156 133.089844 C 270.070312 115.335938 254.460938 103.953125 237.582031 101.03125 Z M 297.175781 188.320312 C 297.09375 217.410156 282.300781 237.246094 257.605469 241.378906 C 223.578125 247.074219 202.738281 241.996094 185.992188 237.917969 C 175.191406 235.289062 165.847656 233.011719 155.496094 234.097656 C 149.734375 234.703125 143.660156 236.347656 136.84375 239.554688 C 119.785156 247.578125 103.847656 246.496094 96.242188 236.800781 C 86.15625 223.941406 93.046875 200.332031 114.671875 173.652344 C 129.933594 154.824219 128.050781 135.925781 126.234375 117.652344 C 124.460938 99.835938 122.785156 83.007812 138.421875 68.96875 C 149.324219 59.179688 157.058594 64.398438 171.097656 73.867188 C 185.035156 83.265625 204.125 96.140625 237.429688 101.902344 C 254.0625 104.78125 269.460938 116.027344 280.789062 133.570312 C 291.257812 149.78125 297.230469 169.734375 297.175781 188.320312 Z M 234.851562 104.019531 C 203.613281 98.613281 185.691406 86.527344 172.609375 77.703125 C 159.453125 68.832031 151.511719 63.476562 140.726562 73.15625 C 125.648438 86.691406 127.25 102.777344 128.945312 119.808594 C 130.644531 136.875 132.402344 154.523438 118.230469 172.011719 C 97.554688 197.515625 91.050781 220.1875 100.832031 232.65625 C 108.261719 242.132812 123.707031 243.25 140.179688 235.5 C 157.882812 227.171875 170.28125 230.191406 185.972656 234.015625 C 199.914062 237.410156 216.851562 241.535156 242.628906 238.832031 C 246.203125 238.457031 249.949219 237.949219 253.878906 237.292969 C 266.484375 235.183594 276.238281 229.167969 282.867188 219.410156 C 288.757812 210.742188 291.890625 199.328125 291.925781 186.394531 C 291.976562 168.699219 286.292969 149.703125 276.332031 134.273438 C 265.515625 117.519531 250.78125 106.773438 234.851562 104.019531 Z M 291.039062 186.390625 C 290.960938 214.230469 277.363281 232.464844 253.730469 236.417969 C 221.636719 241.792969 201.980469 237.003906 186.183594 233.15625 C 175.992188 230.671875 167.175781 228.523438 157.40625 229.550781 C 151.96875 230.121094 146.234375 231.675781 139.800781 234.699219 C 123.71875 242.265625 108.695312 241.246094 101.527344 232.109375 C 92.019531 219.988281 98.519531 197.730469 118.917969 172.566406 C 133.320312 154.796875 131.542969 136.964844 129.828125 119.71875 C 128.15625 102.917969 126.574219 87.050781 141.316406 73.816406 C 151.585938 64.59375 158.878906 69.511719 172.113281 78.4375 C 185.261719 87.304688 203.273438 99.453125 234.699219 104.890625 C 250.382812 107.601562 264.90625 118.210938 275.585938 134.753906 C 285.457031 150.042969 291.089844 168.863281 291.039062 186.390625 Z M 232.121094 107.007812 C 202.761719 101.925781 185.921875 90.566406 173.621094 82.273438 C 161.246094 73.925781 153.777344 68.886719 143.621094 78.003906 C 129.441406 90.734375 130.945312 105.859375 132.539062 121.875 C 134.136719 137.914062 135.789062 154.496094 122.472656 170.925781 C 103.03125 194.910156 96.917969 216.234375 106.117188 227.964844 C 113.113281 236.882812 127.644531 237.933594 143.136719 230.648438 C 159.769531 222.824219 171.417969 225.660156 186.164062 229.253906 C 199.273438 232.445312 215.195312 236.324219 239.429688 233.78125 C 242.789062 233.429688 246.308594 232.953125 250.003906 232.332031 C 261.859375 230.351562 271.035156 224.691406 277.269531 215.515625 C 282.8125 207.363281 285.757812 196.625 285.792969 184.464844 C 285.839844 167.824219 280.496094 149.964844 271.128906 135.457031 C 260.957031 119.703125 247.101562 109.597656 232.121094 107.007812 Z M 284.90625 184.460938 C 284.832031 210.617188 272.058594 227.746094 249.859375 231.460938 C 219.695312 236.511719 201.21875 232.011719 186.375 228.394531 C 176.792969 226.058594 168.503906 224.039062 159.316406 225.003906 C 154.203125 225.539062 148.808594 227.003906 142.761719 229.847656 C 127.652344 236.953125 113.542969 236 106.816406 227.417969 C 97.886719 216.035156 103.996094 195.125 123.160156 171.484375 C 136.703125 154.773438 135.035156 138.003906 133.421875 121.789062 C 131.851562 106.003906 130.367188 91.09375 144.214844 78.660156 C 153.851562 70.007812 160.699219 74.625 173.128906 83.007812 C 185.492188 91.347656 202.425781 102.765625 231.96875 107.878906 C 263.75 113.375 285 151.914062 284.90625 184.460938 Z M 229.390625 109.992188 C 201.910156 105.238281 186.148438 94.609375 174.636719 86.84375 C 163.039062 79.023438 156.039062 74.300781 146.515625 82.847656 C 133.230469 94.777344 134.640625 108.945312 136.132812 123.945312 C 137.628906 138.953125 139.171875 154.472656 126.714844 169.84375 C 108.507812 192.308594 102.78125 212.28125 111.40625 223.273438 C 117.960938 231.632812 131.578125 232.625 146.09375 225.792969 C 161.65625 218.472656 172.554688 221.128906 186.359375 224.492188 C 198.628906 227.480469 213.535156 231.113281 236.230469 228.730469 C 239.378906 228.398438 242.671875 227.953125 246.132812 227.375 C 257.238281 225.515625 265.835938 220.214844 271.675781 211.617188 C 276.867188 203.980469 279.625 193.925781 279.660156 182.53125 C 279.703125 166.953125 274.699219 150.226562 265.925781 136.640625 C 256.398438 121.886719 243.421875 112.421875 229.390625 109.992188 Z M 278.773438 182.53125 C 278.703125 207 266.753906 223.027344 245.988281 226.503906 C 217.757812 231.226562 200.460938 227.015625 186.566406 223.632812 C 177.59375 221.445312 169.832031 219.554688 161.226562 220.457031 C 156.4375 220.960938 151.382812 222.328125 145.71875 224.996094 C 131.589844 231.640625 118.394531 230.753906 112.101562 222.730469 C 103.75 212.085938 109.472656 192.523438 127.402344 170.398438 C 140.089844 154.746094 138.527344 139.042969 137.015625 123.855469 C 135.542969 109.085938 134.15625 95.136719 147.109375 83.507812 C 156.117188 75.421875 162.519531 79.738281 174.144531 87.578125 C 185.71875 95.386719 201.574219 106.078125 229.238281 110.867188 C 258.976562 116.011719 278.859375 152.074219 278.773438 182.53125 Z M 226.660156 112.980469 C 201.0625 108.550781 186.375 98.648438 175.652344 91.417969 C 164.832031 84.117188 158.300781 79.714844 149.414062 87.695312 C 137.019531 98.820312 138.335938 112.027344 139.726562 126.011719 C 141.117188 139.992188 142.558594 154.445312 130.957031 168.757812 C 113.980469 189.703125 108.648438 208.332031 116.691406 218.585938 C 122.808594 226.386719 135.511719 227.3125 149.050781 220.941406 C 163.542969 214.125 173.695312 216.597656 186.546875 219.730469 C 197.984375 222.515625 211.878906 225.898438 233.03125 223.679688 C 235.960938 223.371094 239.035156 222.957031 242.257812 222.417969 C 252.617188 220.683594 260.632812 215.738281 266.082031 207.722656 C 270.921875 200.601562 273.492188 191.226562 273.523438 180.605469 C 273.566406 166.082031 268.898438 150.488281 260.722656 137.824219 C 251.839844 124.066406 239.742188 115.246094 226.660156 112.980469 Z M 272.640625 180.601562 C 272.574219 203.386719 261.449219 218.308594 242.113281 221.546875 C 215.8125 225.945312 199.703125 222.023438 186.757812 218.871094 C 178.394531 216.832031 171.15625 215.070312 163.136719 215.910156 C 158.667969 216.378906 153.957031 217.65625 148.675781 220.140625 C 135.523438 226.328125 123.242188 225.503906 117.386719 218.039062 C 109.617188 208.132812 114.945312 189.917969 131.644531 169.316406 C 143.472656 154.722656 142.019531 140.082031 140.609375 125.925781 C 139.238281 112.171875 137.945312 99.179688 150.003906 88.355469 C 158.378906 80.835938 164.339844 84.851562 175.15625 92.148438 C 185.945312 99.425781 200.722656 109.394531 226.507812 113.851562 C 254.203125 118.644531 272.71875 152.234375 272.640625 180.601562 Z M 223.925781 115.96875 C 200.210938 111.867188 186.601562 102.6875 176.667969 95.988281 C 166.625 89.214844 160.566406 85.128906 152.308594 92.542969 C 140.8125 102.863281 142.03125 115.113281 143.320312 128.082031 C 144.609375 141.03125 145.941406 154.421875 135.199219 167.675781 C 119.457031 187.101562 114.511719 204.378906 121.976562 213.894531 C 127.65625 221.136719 139.445312 222 152.007812 216.089844 C 165.429688 209.777344 174.832031 212.066406 186.738281 214.96875 C 197.34375 217.550781 210.222656 220.6875 229.832031 218.628906 C 232.550781 218.34375 235.398438 217.960938 238.386719 217.460938 C 247.996094 215.851562 255.429688 211.265625 260.488281 203.824219 C 264.976562 197.21875 267.363281 188.523438 267.390625 178.671875 C 267.429688 165.207031 263.101562 150.75 255.519531 139.007812 C 247.285156 126.25 236.0625 118.066406 223.925781 115.96875 Z M 266.503906 178.671875 C 266.445312 199.769531 256.144531 213.589844 238.242188 216.585938 C 213.871094 220.664062 198.945312 217.027344 186.949219 214.109375 C 179.191406 212.21875 172.484375 210.582031 165.046875 211.363281 C 160.902344 211.796875 156.535156 212.984375 151.632812 215.289062 C 139.457031 221.015625 128.089844 220.253906 122.675781 213.351562 C 115.480469 204.179688 120.421875 187.3125 135.886719 168.234375 C 146.859375 154.695312 145.507812 141.121094 144.203125 127.992188 C 142.933594 115.253906 141.738281 103.222656 152.898438 93.199219 C 160.644531 86.246094 166.160156 89.96875 176.171875 96.71875 C 186.175781 103.464844 199.871094 112.707031 223.777344 116.839844 C 249.429688 121.277344 266.578125 152.394531 266.503906 178.671875 Z M 221.195312 118.957031 C 199.359375 115.179688 186.832031 106.726562 177.683594 100.558594 C 168.417969 94.3125 162.828125 90.539062 155.203125 97.386719 C 144.601562 106.90625 145.726562 118.195312 146.914062 130.148438 C 148.101562 142.070312 149.328125 154.394531 139.441406 166.59375 C 124.929688 184.496094 120.378906 200.425781 127.265625 209.207031 C 132.507812 215.890625 143.382812 216.683594 154.96875 211.234375 C 167.316406 205.425781 175.972656 207.535156 186.933594 210.203125 C 196.699219 212.582031 208.566406 215.472656 226.632812 213.578125 C 229.136719 213.316406 231.761719 212.960938 234.515625 212.5 C 243.375 211.019531 250.230469 206.789062 254.890625 199.929688 C 259.03125 193.839844 261.230469 185.824219 261.257812 176.742188 C 261.292969 164.335938 257.304688 151.011719 250.320312 140.191406 C 242.726562 128.433594 232.382812 120.890625 221.195312 118.957031 Z M 260.371094 176.742188 C 260.316406 196.15625 250.835938 208.871094 234.367188 211.628906 C 211.929688 215.382812 198.183594 212.035156 187.140625 209.34375 C 179.992188 207.605469 173.8125 206.097656 166.957031 206.816406 C 163.136719 207.21875 159.109375 208.308594 154.589844 210.433594 C 143.390625 215.703125 132.9375 215.003906 127.960938 208.660156 C 121.347656 200.226562 125.894531 184.710938 140.128906 167.148438 C 150.246094 154.671875 149 142.160156 147.796875 130.0625 C 146.628906 118.339844 145.527344 107.265625 155.796875 98.042969 C 162.910156 91.660156 167.980469 95.082031 177.1875 101.289062 C 186.402344 107.503906 199.023438 116.015625 221.046875 119.828125 C 244.65625 123.910156 260.441406 152.554688 260.371094 176.742188 Z M 218.464844 121.941406 C 198.507812 118.488281 187.058594 110.765625 178.695312 105.128906 C 170.214844 99.40625 165.09375 95.953125 158.101562 102.234375 C 148.390625 110.949219 149.421875 121.28125 150.507812 132.21875 C 151.59375 143.109375 152.714844 154.371094 143.683594 165.507812 C 130.40625 181.890625 126.242188 196.476562 132.550781 204.515625 C 137.355469 210.640625 147.3125 211.371094 157.925781 206.382812 C 169.203125 201.078125 177.109375 203.003906 187.125 205.441406 C 196.058594 207.621094 206.910156 210.261719 223.429688 208.527344 C 225.722656 208.289062 228.121094 207.964844 230.640625 207.542969 C 238.753906 206.183594 245.027344 202.3125 249.296875 196.03125 C 253.085938 190.460938 255.097656 183.121094 255.121094 174.8125 C 255.1875 152.355469 240.472656 125.75 218.464844 121.941406 Z M 254.238281 174.8125 C 254.1875 192.539062 245.53125 204.152344 230.496094 206.667969 C 209.988281 210.101562 197.425781 207.042969 187.332031 204.582031 C 180.792969 202.988281 175.136719 201.613281 168.863281 202.269531 C 165.371094 202.636719 161.683594 203.636719 157.546875 205.582031 C 147.328125 210.390625 137.785156 209.757812 133.246094 203.96875 C 127.210938 196.277344 131.371094 182.105469 144.375 166.066406 C 153.632812 154.644531 152.492188 143.199219 151.390625 132.128906 C 150.324219 121.421875 149.316406 111.304688 158.691406 102.890625 C 165.171875 97.074219 169.800781 100.195312 178.203125 105.859375 C 186.628906 111.542969 198.171875 119.328125 218.316406 122.8125 C 239.878906 126.546875 254.300781 152.710938 254.238281 174.8125 Z M 215.734375 124.929688 C 197.660156 121.804688 187.285156 114.808594 179.710938 109.699219 C 172.007812 104.503906 167.355469 101.367188 160.996094 107.078125 C 152.179688 114.992188 153.113281 124.363281 154.101562 134.289062 C 155.082031 144.148438 156.097656 154.34375 147.925781 164.425781 C 135.878906 179.289062 132.109375 192.523438 137.835938 199.828125 C 142.203125 205.390625 151.246094 206.058594 160.878906 201.53125 C 171.089844 196.726562 178.25 198.472656 187.316406 200.679688 C 195.414062 202.652344 205.25 205.050781 220.230469 203.476562 C 222.308594 203.261719 224.484375 202.964844 226.765625 202.582031 C 234.128906 201.351562 239.828125 197.835938 243.703125 192.136719 C 247.136719 187.078125 248.964844 180.421875 248.988281 172.882812 C 249.046875 152.511719 235.699219 128.382812 215.734375 124.929688 Z M 248.101562 172.882812 C 248.058594 188.925781 240.226562 199.433594 226.621094 201.710938 C 208.050781 204.820312 196.667969 202.046875 187.523438 199.820312 C 181.59375 198.375 176.464844 197.128906 170.773438 197.722656 C 167.605469 198.058594 164.257812 198.964844 160.503906 200.730469 C 151.257812 205.078125 142.636719 204.507812 138.535156 199.28125 C 133.078125 192.324219 136.847656 179.503906 148.617188 164.984375 C 157.015625 154.621094 155.984375 144.238281 154.984375 134.199219 C 154.019531 124.507812 153.105469 115.351562 161.585938 107.738281 C 167.433594 102.484375 171.621094 105.308594 179.214844 110.433594 C 186.855469 115.585938 197.320312 122.644531 215.582031 125.804688 C 235.105469 129.179688 248.160156 152.871094 248.101562 172.882812 Z M 213.003906 127.917969 C 196.808594 125.117188 187.515625 118.847656 180.726562 114.269531 C 173.800781 109.597656 169.621094 106.777344 163.890625 111.925781 C 155.972656 119.03125 156.808594 127.449219 157.695312 136.355469 C 158.574219 145.1875 159.484375 154.316406 152.171875 163.339844 C 141.355469 176.683594 137.972656 188.570312 143.125 195.136719 C 147.050781 200.144531 155.183594 200.746094 163.839844 196.675781 C 172.976562 192.378906 179.386719 193.941406 187.507812 195.917969 C 194.769531 197.6875 203.59375 199.835938 217.03125 198.425781 C 218.894531 198.230469 220.847656 197.96875 222.894531 197.625 C 235.351562 195.539062 242.8125 185.570312 242.855469 170.953125 C 242.90625 152.671875 230.925781 131.019531 213.003906 127.917969 Z M 241.96875 170.953125 C 241.925781 185.3125 234.921875 194.714844 222.75 196.753906 C 206.105469 199.539062 195.910156 197.054688 187.714844 195.058594 C 182.394531 193.761719 177.792969 192.640625 172.683594 193.175781 C 169.835938 193.476562 166.832031 194.289062 163.460938 195.875 C 155.191406 199.765625 147.484375 199.261719 143.820312 194.589844 C 138.941406 188.371094 142.320312 176.898438 152.859375 163.898438 C 160.402344 154.59375 159.472656 145.277344 158.578125 136.269531 C 157.714844 127.589844 156.898438 119.390625 164.480469 112.582031 C 169.695312 107.902344 173.4375 110.421875 180.230469 115.003906 C 187.085938 119.625 196.472656 125.953125 212.851562 128.789062 C 230.332031 131.8125 242.019531 153.03125 241.96875 170.953125 Z M 210.273438 130.90625 C 195.957031 128.429688 187.742188 122.886719 181.742188 118.839844 C 175.59375 114.695312 171.886719 112.191406 166.785156 116.769531 C 159.761719 123.074219 160.503906 130.53125 161.289062 138.425781 C 162.066406 146.226562 162.871094 154.292969 156.414062 162.257812 C 146.832031 174.082031 143.839844 184.617188 148.410156 190.445312 C 151.898438 194.894531 159.117188 195.4375 166.796875 191.824219 C 174.859375 188.03125 180.523438 189.410156 187.695312 191.15625 C 194.128906 192.722656 201.9375 194.625 213.832031 193.378906 C 215.480469 193.203125 217.210938 192.96875 219.023438 192.667969 C 230.066406 190.820312 236.683594 181.980469 236.71875 169.023438 C 236.765625 152.832031 226.148438 133.652344 210.273438 130.90625 Z M 235.835938 169.023438 C 235.796875 181.695312 229.617188 189.996094 218.875 191.792969 C 204.167969 194.257812 195.152344 192.0625 187.90625 190.296875 C 183.195312 189.148438 179.117188 188.15625 174.59375 188.628906 C 172.070312 188.894531 169.410156 189.617188 166.417969 191.023438 C 159.128906 194.453125 152.332031 194.011719 149.105469 189.902344 C 144.808594 184.421875 147.796875 174.292969 157.101562 162.816406 C 163.785156 154.566406 162.964844 146.316406 162.171875 138.335938 C 161.410156 130.671875 160.6875 123.433594 167.378906 117.425781 C 171.960938 113.3125 175.261719 115.535156 181.246094 119.574219 C 187.3125 123.664062 195.621094 129.265625 210.121094 131.777344 C 225.558594 134.449219 235.878906 153.191406 235.835938 169.023438 Z M 207.542969 133.894531 C 195.105469 131.742188 187.96875 126.925781 182.753906 123.410156 C 177.574219 119.914062 174.148438 117.605469 169.679688 121.617188 C 163.550781 127.117188 164.199219 133.613281 164.882812 140.492188 C 165.558594 147.265625 166.253906 154.265625 160.65625 161.175781 C 152.304688 171.476562 149.703125 180.667969 153.695312 185.757812 C 156.75 189.648438 163.050781 190.125 169.753906 186.972656 C 176.75 183.679688 181.664062 184.878906 187.890625 186.394531 C 193.484375 187.757812 200.28125 189.414062 210.632812 188.328125 C 212.066406 188.175781 213.570312 187.972656 215.148438 187.707031 C 224.78125 186.097656 230.554688 178.390625 230.585938 167.09375 C 230.625 152.992188 221.375 136.285156 207.542969 133.894531 Z M 229.699219 167.089844 C 229.667969 178.082031 224.3125 185.277344 215.003906 186.835938 C 202.226562 188.976562 194.390625 187.066406 188.097656 185.535156 C 183.996094 184.535156 180.445312 183.671875 176.503906 184.082031 C 174.304688 184.316406 171.984375 184.945312 169.375 186.171875 C 163.0625 189.140625 157.179688 188.765625 154.394531 185.210938 C 150.671875 180.46875 153.273438 171.691406 161.34375 161.730469 C 167.171875 154.542969 166.457031 147.355469 165.765625 140.40625 C 165.101562 133.757812 164.476562 127.476562 170.273438 122.273438 C 174.226562 118.726562 177.082031 120.652344 182.261719 124.144531 C 187.539062 127.707031 194.769531 132.582031 207.390625 134.765625 C 220.785156 137.082031 229.738281 153.351562 229.699219 167.089844 Z M 204.8125 136.878906 C 194.257812 135.054688 188.195312 130.964844 183.769531 127.980469 C 179.339844 124.992188 176.414062 123.019531 172.578125 126.460938 C 167.34375 131.160156 167.894531 136.699219 168.476562 142.5625 C 169.050781 148.304688 169.640625 154.242188 164.898438 160.09375 C 157.78125 168.871094 155.570312 176.714844 158.984375 181.066406 C 161.59375 184.398438 166.984375 184.8125 172.710938 182.117188 C 178.632812 179.328125 182.804688 180.347656 188.082031 181.632812 C 192.839844 182.792969 198.625 184.199219 207.429688 183.277344 C 208.652344 183.148438 209.933594 182.976562 211.277344 182.75 C 219.5 181.375 224.421875 174.800781 224.449219 165.164062 C 224.484375 153.152344 216.601562 138.917969 204.8125 136.878906 Z M 223.566406 165.160156 C 223.539062 174.464844 219.007812 180.558594 211.128906 181.878906 C 200.285156 183.695312 193.632812 182.074219 188.289062 180.773438 C 184.796875 179.921875 181.773438 179.183594 178.414062 179.539062 C 176.539062 179.734375 174.558594 180.269531 172.332031 181.316406 C 166.996094 183.828125 162.03125 183.515625 159.679688 180.519531 C 156.539062 176.515625 158.746094 169.085938 165.585938 160.648438 C 170.558594 154.515625 169.921875 148.117188 169.359375 142.472656 C 168.796875 136.839844 168.269531 131.519531 173.167969 127.121094 C 176.488281 124.136719 178.757812 125.667969 183.277344 128.714844 C 187.769531 131.746094 193.917969 135.894531 204.660156 137.75 C 216.011719 139.714844 223.601562 153.507812 223.566406 165.160156 Z M 223.566406 165.160156 " fill-opacity="1" fill-rule="nonzero"/></g></g></g></g><g fill="#ffffff" fill-opacity="1"><g transform="translate(34.403678, 283.441959)"><g><path d="M 13.40625 0.515625 C 19.515625 0.515625 23.484375 -2.484375 23.484375 -7.359375 C 23.484375 -11.484375 20.71875 -13.953125 13.5625 -15.71875 C 8.125 -17.046875 6.3125 -18.484375 6.3125 -20.796875 C 6.3125 -23.484375 8.71875 -25.15625 12.71875 -25.15625 C 16.84375 -25.15625 19.40625 -23.078125 19.484375 -19.71875 L 22.953125 -19.71875 C 22.921875 -25.15625 19 -28.515625 12.71875 -28.515625 C 6.59375 -28.515625 2.71875 -25.515625 2.71875 -20.796875 C 2.71875 -16.484375 5.796875 -14.078125 12.6875 -12.4375 C 17.71875 -11.234375 19.84375 -9.84375 19.84375 -7.234375 C 19.84375 -4.484375 17.359375 -2.84375 13.40625 -2.84375 C 9.046875 -2.84375 6 -5 5.921875 -8.59375 L 2.40625 -8.59375 C 2.4375 -3.125 6.71875 0.515625 13.40625 0.515625 Z M 13.40625 0.515625 "/></g></g></g><g fill="#ffffff" fill-opacity="1"><g transform="translate(60.281102, 283.441959)"><g><path d="M 12.6875 0 L 15.796875 0 L 15.796875 -3.234375 L 12.84375 -3.234375 C 10.078125 -3.234375 8.796875 -4.640625 8.796875 -7.640625 L 8.796875 -17.6875 L 15.515625 -17.6875 L 15.515625 -20.765625 L 8.796875 -20.765625 L 8.796875 -25.921875 L 6.203125 -25.921875 L 5.875 -23.125 C 5.640625 -21.234375 5.078125 -20.765625 3.15625 -20.765625 L 1.078125 -20.765625 L 1.078125 -17.6875 L 5.4375 -17.6875 L 5.4375 -7.484375 C 5.4375 -2.71875 8.078125 0 12.6875 0 Z M 12.6875 0 "/></g></g></g><g fill="#ffffff" fill-opacity="1"><g transform="translate(78.039333, 283.441959)"><g><path d="M 3.71875 0 L 7.078125 0 L 7.078125 -9.640625 C 7.078125 -15.5625 10.046875 -17.640625 13.796875 -17.640625 L 15.84375 -17.640625 L 15.84375 -20.765625 L 13.953125 -20.765625 C 10.4375 -20.765625 8.359375 -19.640625 6.875 -17.15625 L 6.484375 -20.765625 L 3.71875 -20.765625 Z M 3.71875 0 "/></g></g></g><g fill="#ffffff" fill-opacity="1"><g transform="translate(95.477599, 283.441959)"><g><path d="M 12.71875 0.515625 C 17.40625 0.515625 21.234375 -2 22.921875 -6.046875 L 19.125 -6.046875 C 17.84375 -3.84375 15.484375 -2.640625 12.765625 -2.640625 C 8.796875 -2.640625 6 -5.125 5.484375 -9.046875 L 23.4375 -9.046875 C 23.6875 -16.28125 19.40625 -21.28125 12.765625 -21.28125 C 6.484375 -21.28125 2.078125 -16.796875 2.078125 -10.40625 C 2.078125 -3.953125 6.4375 0.515625 12.71875 0.515625 Z M 5.515625 -12 C 6.125 -15.6875 8.921875 -18.125 12.765625 -18.125 C 16.5625 -18.125 19.359375 -15.796875 20.078125 -12 Z M 5.515625 -12 "/></g></g></g><g fill="#ffffff" fill-opacity="1"><g transform="translate(120.915067, 283.441959)"><g><path d="M 10.515625 0.3125 C 13.875 0.3125 16.515625 -0.765625 18.40625 -2.875 L 18.765625 0 L 21.515625 0 L 21.515625 -13.203125 C 21.515625 -18 17.875 -21.28125 12.4375 -21.28125 C 7.921875 -21.28125 4.515625 -18.84375 3.59375 -14.84375 L 7 -14.84375 C 7.6875 -16.875 9.796875 -18.15625 12.484375 -18.15625 C 16 -18.15625 18.15625 -16.203125 18.15625 -12.953125 L 18.15625 -12.203125 L 9.6875 -12.203125 C 5.359375 -12.203125 2.515625 -9.765625 2.515625 -6 C 2.515625 -2.078125 5.515625 0.3125 10.515625 0.3125 Z M 5.875 -6.046875 C 5.875 -8 7.484375 -9.234375 9.796875 -9.234375 L 18.203125 -9.234375 C 18.078125 -5.40625 14.953125 -2.6875 10.640625 -2.6875 C 7.71875 -2.6875 5.875 -4 5.875 -6.046875 Z M 5.875 -6.046875 "/></g></g></g><g fill="#ffffff" fill-opacity="1"><g transform="translate(145.712604, 283.441959)"><g><path d="M 3.71875 0 L 7.078125 0 L 7.078125 -11.046875 C 7.078125 -15.3125 9.484375 -18.078125 13.078125 -18.078125 C 16.5625 -18.078125 18.765625 -15.4375 18.765625 -11.3125 L 18.765625 0 L 22.125 0 L 22.125 -11.046875 C 22.125 -15.3125 24.515625 -18.078125 28.125 -18.078125 C 31.59375 -18.078125 33.796875 -15.4375 33.796875 -11.3125 L 33.796875 0 L 37.15625 0 L 37.15625 -11.875 C 37.15625 -17.6875 33.796875 -21.28125 28.5625 -21.28125 C 25.203125 -21.28125 22.484375 -19.84375 20.84375 -17.203125 C 19.4375 -19.875 16.875 -21.28125 13.5625 -21.28125 C 10.6875 -21.28125 8.359375 -20.203125 6.796875 -18.15625 L 6.484375 -20.765625 L 3.71875 -20.765625 Z M 3.71875 0 "/></g></g></g><g fill="#ffffff" fill-opacity="1"><g transform="translate(186.18858, 283.441959)"><g/></g></g><g fill="#ffffff" fill-opacity="1"><g transform="translate(196.107597, 283.441959)"><g><path d="M 12.6875 0 L 15.796875 0 L 15.796875 -3.234375 L 12.84375 -3.234375 C 10.078125 -3.234375 8.796875 -4.640625 8.796875 -7.640625 L 8.796875 -17.6875 L 15.515625 -17.6875 L 15.515625 -20.765625 L 8.796875 -20.765625 L 8.796875 -25.921875 L 6.203125 -25.921875 L 5.875 -23.125 C 5.640625 -21.234375 5.078125 -20.765625 3.15625 -20.765625 L 1.078125 -20.765625 L 1.078125 -17.6875 L 5.4375 -17.6875 L 5.4375 -7.484375 C 5.4375 -2.71875 8.078125 0 12.6875 0 Z M 12.6875 0 "/></g></g></g><g fill="#ffffff" fill-opacity="1"><g transform="translate(213.865828, 283.441959)"><g><path d="M 13.078125 0.515625 C 19.515625 0.515625 24.078125 -4.046875 24.078125 -10.40625 C 24.078125 -16.765625 19.515625 -21.28125 13.078125 -21.28125 C 6.640625 -21.28125 2.078125 -16.765625 2.078125 -10.40625 C 2.078125 -4.046875 6.640625 0.515625 13.078125 0.515625 Z M 5.4375 -10.40625 C 5.4375 -14.921875 8.59375 -18.078125 13.078125 -18.078125 C 17.5625 -18.078125 20.71875 -14.921875 20.71875 -10.40625 C 20.71875 -5.84375 17.5625 -2.71875 13.078125 -2.71875 C 8.59375 -2.71875 5.4375 -5.84375 5.4375 -10.40625 Z M 5.4375 -10.40625 "/></g></g></g><g fill="#ffffff" fill-opacity="1"><g transform="translate(240.023232, 283.441959)"><g/></g></g><g fill="#ffffff" fill-opacity="1"><g transform="translate(249.942238, 283.441959)"><g><path d="M 13.40625 0.515625 C 19.515625 0.515625 23.484375 -2.484375 23.484375 -7.359375 C 23.484375 -11.484375 20.71875 -13.953125 13.5625 -15.71875 C 8.125 -17.046875 6.3125 -18.484375 6.3125 -20.796875 C 6.3125 -23.484375 8.71875 -25.15625 12.71875 -25.15625 C 16.84375 -25.15625 19.40625 -23.078125 19.484375 -19.71875 L 22.953125 -19.71875 C 22.921875 -25.15625 19 -28.515625 12.71875 -28.515625 C 6.59375 -28.515625 2.71875 -25.515625 2.71875 -20.796875 C 2.71875 -16.484375 5.796875 -14.078125 12.6875 -12.4375 C 17.71875 -11.234375 19.84375 -9.84375 19.84375 -7.234375 C 19.84375 -4.484375 17.359375 -2.84375 13.40625 -2.84375 C 9.046875 -2.84375 6 -5 5.921875 -8.59375 L 2.40625 -8.59375 C 2.4375 -3.125 6.71875 0.515625 13.40625 0.515625 Z M 13.40625 0.515625 "/></g></g></g><g fill="#ffffff" fill-opacity="1"><g transform="translate(275.819663, 283.441959)"><g><path d="M 15.046875 0.515625 C 21.15625 0.515625 25.59375 -4.078125 25.59375 -10.40625 C 25.59375 -16.6875 21.15625 -21.28125 15.046875 -21.28125 C 11.640625 -21.28125 8.765625 -19.875 6.875 -17.5625 L 6.484375 -20.765625 L 3.71875 -20.765625 L 3.71875 8 L 7.078125 8 L 7.078125 -2.953125 C 8.953125 -0.796875 11.765625 0.515625 15.046875 0.515625 Z M 6.953125 -10.40625 C 6.953125 -14.875 10.125 -18.078125 14.59375 -18.078125 C 19.125 -18.078125 22.234375 -14.875 22.234375 -10.40625 C 22.234375 -5.875 19.125 -2.71875 14.59375 -2.71875 C 10.125 -2.71875 6.953125 -5.875 6.953125 -10.40625 Z M 6.953125 -10.40625 "/></g></g></g><g fill="#ffffff" fill-opacity="1"><g transform="translate(303.496922, 283.441959)"><g><path d="M 3.71875 0 L 7.078125 0 L 7.078125 -20.765625 L 3.71875 -20.765625 Z M 2.6875 -26.796875 C 2.6875 -25.3125 3.765625 -24.203125 5.40625 -24.203125 C 7.046875 -24.203125 8.078125 -25.3125 8.078125 -26.796875 C 8.078125 -28.3125 7.046875 -29.4375 5.40625 -29.4375 C 3.765625 -29.4375 2.6875 -28.3125 2.6875 -26.796875 Z M 2.6875 -26.796875 "/></g></g></g><g fill="#ffffff" fill-opacity="1"><g transform="translate(314.295841, 283.441959)"><g><path d="M 3.71875 0 L 7.078125 0 L 7.078125 -10.484375 C 7.078125 -15.046875 9.84375 -18.078125 13.71875 -18.078125 C 17.359375 -18.078125 19.59375 -15.4375 19.59375 -11.234375 L 19.59375 0 L 22.953125 0 L 22.953125 -11.5625 C 22.953125 -17.484375 19.6875 -21.28125 14.15625 -21.28125 C 11.359375 -21.28125 8.640625 -20.203125 6.84375 -17.71875 L 6.484375 -20.765625 L 3.71875 -20.765625 Z M 3.71875 0 "/></g></g></g></svg>